<?xml version="1.0" encoding="utf-8"?>
<!-- Generator: Adobe Illustrator 26.5.0, SVG Export Plug-In . SVG Version: 6.00 Build 0)  -->
<svg version="1.1" xmlns="http://www.w3.org/2000/svg" xmlns:xlink="http://www.w3.org/1999/xlink" x="0px" y="0px"
	 viewBox="0 0 250 250" style="enable-background:new 0 0 250 250;" xml:space="preserve">
<style type="text/css">
	.st0{display:none;}
	.st1{display:inline;fill:none;stroke:#231F20;stroke-width:0.25;stroke-miterlimit:10;}
	.st2{display:inline;}
	.st3{fill:#66BE6F;}
	.st4{fill:#FFFFFF;}
	.st5{fill:#EC1C24;}
	.st6{opacity:0.16;}
	.st7{opacity:0.2;fill:#6D6E70;}
	.st8{opacity:0.3;fill:#757779;}
	.st9{display:inline;fill:#66BE6F;}
	.st10{display:inline;fill:#68BE6F;}
	.st11{display:inline;fill:#EC1C24;}
	.st12{fill:#67BE6F;}
	.st13{fill:none;}
	.st14{fill:#68BE6F;}
	.st15{fill-rule:evenodd;clip-rule:evenodd;fill:#68BE6F;}
	.st16{fill-rule:evenodd;clip-rule:evenodd;fill:#EC1C24;}
	.st17{display:inline;fill-rule:evenodd;clip-rule:evenodd;fill:#68BE6F;}
	.st18{fill:#68BF6F;}
	.st19{fill:#FB2E32;}
	.st20{fill:#6B1515;}
	.st21{fill:none;stroke:#FB2E32;stroke-width:4.4231;stroke-linecap:round;stroke-miterlimit:10;}
	.st22{fill:none;stroke:#FFFFFF;stroke-miterlimit:10;}
	.st23{fill:none;stroke:#68BF6F;stroke-width:4;stroke-miterlimit:10;}
	.st24{fill:none;stroke:#FCFCFC;stroke-width:4;stroke-miterlimit:10;}
	.st25{fill:none;stroke:#000000;stroke-width:4.4231;stroke-linecap:round;stroke-miterlimit:10;}
	.st26{fill:#232323;stroke:#FFFFFF;stroke-width:3.9328;stroke-linecap:round;stroke-linejoin:round;stroke-miterlimit:10;}
	.st27{fill:none;stroke:#FFFFFF;stroke-width:4;stroke-miterlimit:10;}
	.st28{fill:none;stroke:#000000;stroke-width:4;stroke-linecap:round;stroke-miterlimit:10;}
	.st29{fill:none;stroke:#FFFFFF;stroke-width:3.9328;stroke-linecap:round;stroke-linejoin:round;stroke-miterlimit:10;}
	.st30{fill:none;stroke:#000000;stroke-miterlimit:10;}
	.st31{fill:none;stroke:#FFFFFF;stroke-width:4;stroke-linecap:round;stroke-miterlimit:10;}
</style>
<g id="BG" class="st0">
	<rect x="25" y="25" class="st1" width="200" height="200"/>
</g>
<g id="Layer_1" class="st0">
</g>
<g id="Layer_2" class="st0">
</g>
<g id="Layer_4" class="st0">
</g>
<g id="Layer_5" class="st0">
</g>
<g id="Layer_6" class="st0">
</g>
<g id="Layer_7" class="st0">
</g>
<g id="Layer_8" class="st0">
</g>
<g id="Layer_9" class="st0">
</g>
<g id="Layer_20" class="st0">
</g>
<g id="Layer_21" class="st0">
</g>
<g id="Layer_22" class="st0">
</g>
<g id="Layer_28" class="st0">
</g>
<g id="Layer_10" class="st0">
</g>
<g id="Layer_11" class="st0">
</g>
<g id="Layer_12" class="st0">
</g>
<g id="Layer_13" class="st0">
</g>
<g id="Layer_14" class="st0">
</g>
<g id="Layer_15" class="st0">
</g>
<g id="Layer_16" class="st0">
</g>
<g id="Layer_17" class="st0">
</g>
<g id="Layer_18" class="st0">
</g>
<g id="Layer_19" class="st0">
</g>
<g id="Layer_23" class="st0">
</g>
<g id="Layer_24" class="st0">
</g>
<g id="Layer_25" class="st0">
</g>
<g id="Layer_26" class="st0">
</g>
<g id="Layer_27" class="st0">
</g>
<g id="Layer_29" class="st0">
</g>
<g id="Layer_31">
	<g>
		<path d="M190.72,57.69c-20.62-13.22-47.13-8.49-57.38,4.7c-1.37,1.76-2.6,3.46-3.74,5.1c-1.03-4.38-1.67-9.43-1.67-15.8V31.74
			c0,0,0-0.13,0-0.2c0-1.4-5.92-2.53-13.23-2.53c-7.31,0-13.23,1.13-13.23,2.53c0,0.07-0.02,0.2-0.02,0.2v19.95
			c0,21.45,5.84,33.71,10.53,43.57c3.59,7.54,6.18,12.98,6.18,22.04c0,9.57-2.42,40.93-33.53,42.6c-4.75,0.26-8.91-0.55-13.32-1.39
			c-7.04-1.35-15.03-2.89-23.58,0.93c-17.78,7.94-17.78,25.06-17.78,40.16l0.01,18.85c0,0,0,0,0,0c0,1.4,5.92,2.53,13.23,2.53
			c7.31,0,13.23-1.13,13.23-2.53c0,0,0,0,0,0l0.01-18.85c0-0.77,0-1.8,0.01-2.97c0.8-8.85,5.34-10.94,9.36-10.94
			c8.48,0,22.43,27.98,62.59,27.98c33.22,0,66.31-22.64,81.57-56.44C228.95,115.19,220.31,76.66,190.72,57.69z M43.2,218.98
			c-6.51,0-11.8-0.75-11.8-1.68c0-0.93,5.28-1.68,11.8-1.68c6.51,0,11.8,0.75,11.8,1.68C54.99,218.23,49.71,218.98,43.2,218.98z
			 M114.71,34.08c-6.51,0-11.8-0.75-11.8-1.68c0-0.93,5.28-1.68,11.8-1.68c6.51,0,11.8,0.75,11.8,1.68
			C126.5,33.33,121.22,34.08,114.71,34.08z M199.77,149.63c-11.57,28.25-43.14,51.24-70.38,51.24c-29.2,0-41.08-13.7-41.72-22.34
			c-0.36-4.86,2.73-7.55,5.76-8c20.63-3.04,33.17-15.59,37.26-37.32c1.62-8.57,1.06-16.57,0.52-24.3
			c-0.89-12.91-1.82-26.26,9.49-37.57c2.95-2.95,11.16-9.82,23.68-9.82c7.51,0,14.96,2.5,22.16,7.44
			C207.46,83.34,213.03,117.26,199.77,149.63z"/>
		<g>
			<path d="M195.88,143.12c-0.87,0.63-1.96,1.41-4,1.41c-2.04,0-3.12-0.78-4-1.41c-0.72-0.52-1.24-0.89-2.4-0.89
				c-1.16,0-1.68,0.37-2.4,0.89c-0.87,0.63-1.96,1.41-4,1.41c-2.04,0-3.12-0.78-4-1.41c-0.72-0.52-1.24-0.89-2.4-0.89
				s-1.68,0.37-2.4,0.89c-0.87,0.63-1.96,1.41-4,1.41c-2.04,0-3.12-0.78-4-1.41c-0.72-0.52-1.24-0.89-2.4-0.89
				c-1.16,0-1.68,0.37-2.4,0.89c-0.87,0.63-1.96,1.41-3.99,1.41c-2.04,0-3.12-0.78-4-1.41c-0.72-0.52-1.24-0.89-2.4-0.89
				c-1.16,0-1.68,0.37-2.4,0.89c-0.87,0.63-1.96,1.41-4,1.41c-2.04,0-3.12-0.78-4-1.41c-0.72-0.52-1.24-0.89-2.4-0.89
				c-0.51,0-0.88,0.08-1.21,0.21c-5.31,16.42-17.06,29.43-38.98,32.66c-5.67,0.83,0.5,21.18,35.29,21.18
				c26.33,0,55.61-22.72,66.12-48.38c0.76-1.86,1.44-3.72,2.07-5.6C196.88,142.41,196.44,142.72,195.88,143.12z"/>
			<g>
				<path class="st4" d="M132.94,187.84c-1.8,0-3.26-1.46-3.26-3.26c0-1.8,1.46-3.26,3.26-3.26c1.8,0,3.26,1.46,3.26,3.26
					C136.21,186.38,134.75,187.84,132.94,187.84z"/>
				<path class="st4" d="M142.59,172.57c-2.6,0-4.71-2.11-4.71-4.71c0-2.6,2.11-4.71,4.71-4.71c2.6,0,4.71,2.11,4.71,4.71
					C147.3,170.46,145.19,172.57,142.59,172.57z"/>
				<path class="st4" d="M163.27,163.15c-2.88,0-5.22-2.34-5.22-5.22c0-2.88,2.34-5.22,5.22-5.22s5.22,2.34,5.22,5.22
					C168.49,160.82,166.15,163.15,163.27,163.15z"/>
			</g>
			<path d="M155.52,119.25c0,2.6-2.11,4.71-4.71,4.71c-2.6,0-4.71-2.11-4.71-4.71s2.11-4.71,4.71-4.71
				C153.42,114.54,155.52,116.65,155.52,119.25z"/>
			<path d="M169.19,105.51c0,2.22-1.8,4.02-4.02,4.02c-2.22,0-4.02-1.8-4.02-4.02c0-2.22,1.8-4.02,4.02-4.02
				C167.39,101.5,169.19,103.29,169.19,105.51z"/>
			<circle cx="146.31" cy="91.98" r="4.51"/>
			<circle cx="169.65" cy="129.44" r="4.47"/>
		</g>
	</g>
</g>
<g id="Layer_30">
</g>
</svg>
