<?xml version="1.0" encoding="utf-8"?>
<!-- Generator: Adobe Illustrator 26.5.0, SVG Export Plug-In . SVG Version: 6.00 Build 0)  -->
<svg version="1.1" xmlns="http://www.w3.org/2000/svg" xmlns:xlink="http://www.w3.org/1999/xlink" x="0px" y="0px"
	 viewBox="0 0 250 250" style="enable-background:new 0 0 250 250;" xml:space="preserve">
<style type="text/css">
	.st0{display:none;}
	.st1{display:inline;fill:none;stroke:#231F20;stroke-width:0.25;stroke-miterlimit:10;}
	.st2{display:inline;}
	.st3{fill:#66BE6F;}
	.st4{fill:#FFFFFF;}
	.st5{fill:#EC1C24;}
	.st6{opacity:0.16;}
	.st7{opacity:0.2;fill:#6D6E70;}
	.st8{opacity:0.3;fill:#757779;}
	.st9{display:inline;fill:#66BE6F;}
	.st10{display:inline;fill:#68BE6F;}
	.st11{display:inline;fill:#EC1C24;}
	.st12{fill:#67BE6F;}
	.st13{fill:none;}
	.st14{fill:#68BE6F;}
	.st15{fill-rule:evenodd;clip-rule:evenodd;fill:#68BE6F;}
	.st16{fill-rule:evenodd;clip-rule:evenodd;fill:#EC1C24;}
	.st17{display:inline;fill-rule:evenodd;clip-rule:evenodd;fill:#68BE6F;}
	.st18{fill:#68BF6F;}
	.st19{fill:#FB2E32;}
	.st20{fill:#6B1515;}
	.st21{fill:none;stroke:#FB2E32;stroke-width:4.4231;stroke-linecap:round;stroke-miterlimit:10;}
	.st22{fill:none;stroke:#FFFFFF;stroke-miterlimit:10;}
	.st23{fill:none;stroke:#68BF6F;stroke-width:4;stroke-miterlimit:10;}
	.st24{fill:none;stroke:#FCFCFC;stroke-width:4;stroke-miterlimit:10;}
	.st25{fill:none;stroke:#000000;stroke-width:4.4231;stroke-linecap:round;stroke-miterlimit:10;}
	.st26{fill:#232323;stroke:#FFFFFF;stroke-width:3.9328;stroke-linecap:round;stroke-linejoin:round;stroke-miterlimit:10;}
	.st27{fill:none;stroke:#FFFFFF;stroke-width:4;stroke-miterlimit:10;}
	.st28{fill:none;stroke:#000000;stroke-width:4;stroke-linecap:round;stroke-miterlimit:10;}
	.st29{fill:none;stroke:#FFFFFF;stroke-width:3.9328;stroke-linecap:round;stroke-linejoin:round;stroke-miterlimit:10;}
	.st30{fill:none;stroke:#000000;stroke-miterlimit:10;}
	.st31{fill:none;stroke:#FFFFFF;stroke-width:4;stroke-linecap:round;stroke-miterlimit:10;}
</style>
<g id="BG" class="st0">
	<rect x="25" y="25" class="st1" width="200" height="200"/>
</g>
<g id="Layer_1" class="st0">
</g>
<g id="Layer_2" class="st0">
</g>
<g id="Layer_4" class="st0">
</g>
<g id="Layer_5" class="st0">
</g>
<g id="Layer_6" class="st0">
</g>
<g id="Layer_7" class="st0">
</g>
<g id="Layer_8" class="st0">
</g>
<g id="Layer_9" class="st0">
</g>
<g id="Layer_20" class="st0">
</g>
<g id="Layer_21" class="st0">
</g>
<g id="Layer_22" class="st0">
</g>
<g id="Layer_28" class="st0">
</g>
<g id="Layer_10" class="st0">
</g>
<g id="Layer_11" class="st0">
</g>
<g id="Layer_12" class="st0">
</g>
<g id="Layer_13" class="st0">
</g>
<g id="Layer_14" class="st0">
</g>
<g id="Layer_15" class="st0">
</g>
<g id="Layer_16" class="st0">
</g>
<g id="Layer_17" class="st0">
</g>
<g id="Layer_18" class="st0">
</g>
<g id="Layer_19" class="st0">
</g>
<g id="Layer_23" class="st0">
</g>
<g id="Layer_24" class="st0">
</g>
<g id="Layer_25" class="st0">
</g>
<g id="Layer_26" class="st0">
</g>
<g id="Layer_27" class="st0">
</g>
<g id="Layer_29" class="st0">
</g>
<g id="Layer_31">
	<g id="NewGroupe0_84_">
		<g id="NewGroup84-0">
			<g>
				<path d="M150.83,104.93c-0.32,3.11-5.92,6.84-6.54,15.55c-0.62,8.71-6.53,8.86-9.02,6.61c-2.49-2.26-4.04-8.48-7.15-8.48
					c-3.11,0-3.11,0-3.11,0s0,0-3.11,0c-3.11,0-4.67,6.22-7.15,8.48c-2.49,2.26-8.4,2.1-9.02-6.61c-0.62-8.71-6.22-12.44-6.54-15.55
					c-0.32-3.11,0.32-5.29,0.01-11.82c-0.31-6.53,6.22-9.02,9.64-6.84c3.42,2.18,1.56,7.46,4.35,8.99c2.8,1.52,3.73,9.99,5.6,11.07
					c0.19,0.11,0.4,0.2,0.63,0.27c1.12,0.35,2.34-0.29,2.65-1.42c0.47-1.79,1.61-3.05,2.95-3.05c1.33,0,2.47,1.26,2.95,3.05
					c0.3,1.14,1.52,1.77,2.65,1.42c0.23-0.07,0.44-0.16,0.63-0.27c1.87-1.09,2.8-9.55,5.6-11.07c2.8-1.52,0.93-6.81,4.35-8.99
					c3.42-2.18,9.95,0.31,9.64,6.84C150.51,99.64,151.15,101.82,150.83,104.93L150.83,104.93z M118.17,130.55
					c0.14-1.35,1.72-2.4,3.54-2.4h6.59c1.82,0,3.4,1.05,3.54,2.4c0.14,1.4-1.33,2.59-3.29,2.59h-7.09
					C119.49,133.13,118.02,131.95,118.17,130.55L118.17,130.55z M121.29,136.46h7.43c2.05,0,3.85,1.34,4.03,3.07
					c0.18,1.81-1.47,3.34-3.71,3.34h-8.08c-2.23,0-3.89-1.53-3.71-3.34C117.43,137.81,119.23,136.46,121.29,136.46L121.29,136.46z
					 M129.69,155.75h-9.38c-2.59,0-4.49-2.06-4.24-4.47c0.23-2.29,2.32-4.06,4.67-4.06h8.52c2.35,0,4.44,1.77,4.67,4.06
					C134.18,153.69,132.28,155.75,129.69,155.75L129.69,155.75z M218.63,144.11c-6.2-18.11-39.94-21.65-39.94-21.65
					c-22.33-4.94-17.53-48.69-17.53-48.69H88.84c0,0,4.8,43.75-17.54,48.69c0,0-33.73,3.54-39.93,21.65
					c-1.41,4.1-2.99,19.87-4.61,28.07c-0.42,2.1,1.2,4.06,3.34,4.06H219.9c2.14,0,3.75-1.95,3.34-4.06
					C221.62,163.97,220.03,148.21,218.63,144.11L218.63,144.11z"/>
			</g>
		</g>
	</g>
</g>
<g id="Layer_30">
</g>
</svg>
