<?xml version="1.0" encoding="utf-8"?>
<!-- Generator: Adobe Illustrator 26.5.0, SVG Export Plug-In . SVG Version: 6.00 Build 0)  -->
<svg version="1.1" xmlns="http://www.w3.org/2000/svg" xmlns:xlink="http://www.w3.org/1999/xlink" x="0px" y="0px"
	 viewBox="0 0 250 250" style="enable-background:new 0 0 250 250;" xml:space="preserve">
<style type="text/css">
	.st0{display:none;}
	.st1{display:inline;fill:none;stroke:#231F20;stroke-width:0.25;stroke-miterlimit:10;}
	.st2{display:inline;}
	.st3{fill:#66BE6F;}
	.st4{fill:#FFFFFF;}
	.st5{fill:#EC1C24;}
	.st6{opacity:0.16;}
	.st7{opacity:0.2;fill:#6D6E70;}
	.st8{opacity:0.3;fill:#757779;}
	.st9{display:inline;fill:#66BE6F;}
	.st10{display:inline;fill:#68BE6F;}
	.st11{display:inline;fill:#EC1C24;}
	.st12{fill:#67BE6F;}
	.st13{fill:none;}
	.st14{fill:#68BE6F;}
	.st15{fill-rule:evenodd;clip-rule:evenodd;fill:#68BE6F;}
	.st16{fill-rule:evenodd;clip-rule:evenodd;fill:#EC1C24;}
	.st17{display:inline;fill-rule:evenodd;clip-rule:evenodd;fill:#68BE6F;}
	.st18{fill:#68BF6F;}
	.st19{fill:#FB2E32;}
	.st20{fill:#6B1515;}
	.st21{fill:none;stroke:#FB2E32;stroke-width:4.4231;stroke-linecap:round;stroke-miterlimit:10;}
	.st22{fill:none;stroke:#FFFFFF;stroke-miterlimit:10;}
	.st23{fill:none;stroke:#68BF6F;stroke-width:4;stroke-miterlimit:10;}
	.st24{fill:none;stroke:#FCFCFC;stroke-width:4;stroke-miterlimit:10;}
	.st25{fill:none;stroke:#000000;stroke-width:4.4231;stroke-linecap:round;stroke-miterlimit:10;}
	.st26{fill:#232323;stroke:#FFFFFF;stroke-width:3.9328;stroke-linecap:round;stroke-linejoin:round;stroke-miterlimit:10;}
	.st27{fill:none;stroke:#FFFFFF;stroke-width:4;stroke-miterlimit:10;}
	.st28{fill:none;stroke:#000000;stroke-width:4;stroke-linecap:round;stroke-miterlimit:10;}
	.st29{fill:none;stroke:#FFFFFF;stroke-width:3.9328;stroke-linecap:round;stroke-linejoin:round;stroke-miterlimit:10;}
	.st30{fill:none;stroke:#000000;stroke-miterlimit:10;}
	.st31{fill:none;stroke:#FFFFFF;stroke-width:4;stroke-linecap:round;stroke-miterlimit:10;}
</style>
<g id="BG" class="st0">
	<rect x="25" y="25" class="st1" width="200" height="200"/>
</g>
<g id="Layer_1" class="st0">
</g>
<g id="Layer_2" class="st0">
</g>
<g id="Layer_4" class="st0">
</g>
<g id="Layer_5" class="st0">
</g>
<g id="Layer_6" class="st0">
</g>
<g id="Layer_7" class="st0">
</g>
<g id="Layer_8" class="st0">
</g>
<g id="Layer_9" class="st0">
</g>
<g id="Layer_20" class="st0">
</g>
<g id="Layer_21" class="st0">
</g>
<g id="Layer_22" class="st0">
</g>
<g id="Layer_28" class="st0">
</g>
<g id="Layer_10" class="st0">
</g>
<g id="Layer_11" class="st0">
</g>
<g id="Layer_12" class="st0">
</g>
<g id="Layer_13" class="st0">
</g>
<g id="Layer_14" class="st0">
</g>
<g id="Layer_15" class="st0">
</g>
<g id="Layer_16" class="st0">
</g>
<g id="Layer_17" class="st0">
</g>
<g id="Layer_18" class="st0">
</g>
<g id="Layer_19" class="st0">
</g>
<g id="Layer_23" class="st0">
</g>
<g id="Layer_24" class="st0">
</g>
<g id="Layer_25" class="st0">
</g>
<g id="Layer_26" class="st0">
</g>
<g id="Layer_27" class="st0">
</g>
<g id="Layer_29" class="st0">
</g>
<g id="Layer_31">
	<g>
		<rect x="115.95" y="168.25" width="18.09" height="56.75"/>
		<path d="M135.08,25h-20.16C95.03,25,78.9,41.12,78.9,61.02v64.1c0,19.89,16.12,36.02,36.02,36.02h20.16
			c19.89,0,36.02-16.12,36.02-36.02v-64.1C171.1,41.12,154.97,25,135.08,25z M110.57,139.59c-3.09,0-5.6-2.51-5.6-5.6
			c0-3.09,2.51-5.6,5.6-5.6c3.09,0,5.6,2.51,5.6,5.6C116.17,137.09,113.66,139.59,110.57,139.59z M139.43,139.59
			c-3.09,0-5.6-2.51-5.6-5.6c0-3.09,2.51-5.6,5.6-5.6c3.09,0,5.6,2.51,5.6,5.6C145.03,137.09,142.52,139.59,139.43,139.59z
			 M159.03,115.47H90.97V47.4h68.07V115.47z"/>
		<path d="M124.77,108.15c8.01,0,14.5-5.95,14.5-13.3c0-10.08-4.66-13.67-14.5-37.95c-9.84,24.28-14.5,27.87-14.5,37.95
			C110.27,102.2,116.75,108.15,124.77,108.15z"/>
	</g>
</g>
<g id="Layer_30">
</g>
</svg>
