<?xml version="1.0" encoding="utf-8"?>
<!-- Generator: Adobe Illustrator 26.5.0, SVG Export Plug-In . SVG Version: 6.00 Build 0)  -->
<svg version="1.1" xmlns="http://www.w3.org/2000/svg" xmlns:xlink="http://www.w3.org/1999/xlink" x="0px" y="0px"
	 viewBox="0 0 250 250" style="enable-background:new 0 0 250 250;" xml:space="preserve">
<style type="text/css">
	.st0{display:none;}
	.st1{display:inline;fill:none;stroke:#231F20;stroke-width:0.25;stroke-miterlimit:10;}
	.st2{display:inline;}
	.st3{fill:#66BE6F;}
	.st4{fill:#FFFFFF;}
	.st5{fill:#EC1C24;}
	.st6{opacity:0.16;}
	.st7{opacity:0.2;fill:#6D6E70;}
	.st8{opacity:0.3;fill:#757779;}
	.st9{display:inline;fill:#66BE6F;}
	.st10{display:inline;fill:#68BE6F;}
	.st11{display:inline;fill:#EC1C24;}
	.st12{fill:#67BE6F;}
	.st13{fill:none;}
	.st14{fill:#68BE6F;}
	.st15{fill-rule:evenodd;clip-rule:evenodd;fill:#68BE6F;}
	.st16{fill-rule:evenodd;clip-rule:evenodd;fill:#EC1C24;}
	.st17{display:inline;fill-rule:evenodd;clip-rule:evenodd;fill:#68BE6F;}
	.st18{fill:#68BF6F;}
	.st19{fill:#FB2E32;}
	.st20{fill:#6B1515;}
	.st21{fill:none;stroke:#FB2E32;stroke-width:4.4231;stroke-linecap:round;stroke-miterlimit:10;}
	.st22{fill:none;stroke:#FFFFFF;stroke-miterlimit:10;}
	.st23{fill:none;stroke:#68BF6F;stroke-width:4;stroke-miterlimit:10;}
	.st24{fill:none;stroke:#FCFCFC;stroke-width:4;stroke-miterlimit:10;}
	.st25{fill:none;stroke:#000000;stroke-width:4.4231;stroke-linecap:round;stroke-miterlimit:10;}
	.st26{fill:#232323;stroke:#FFFFFF;stroke-width:3.9328;stroke-linecap:round;stroke-linejoin:round;stroke-miterlimit:10;}
	.st27{fill:none;stroke:#FFFFFF;stroke-width:4;stroke-miterlimit:10;}
	.st28{fill:none;stroke:#000000;stroke-width:4;stroke-linecap:round;stroke-miterlimit:10;}
	.st29{fill:none;stroke:#FFFFFF;stroke-width:3.9328;stroke-linecap:round;stroke-linejoin:round;stroke-miterlimit:10;}
	.st30{fill:none;stroke:#000000;stroke-miterlimit:10;}
	.st31{fill:none;stroke:#FFFFFF;stroke-width:4;stroke-linecap:round;stroke-miterlimit:10;}
</style>
<g id="BG" class="st0">
	<rect x="25" y="25" class="st1" width="200" height="200"/>
</g>
<g id="Layer_1" class="st0">
</g>
<g id="Layer_2" class="st0">
</g>
<g id="Layer_4" class="st0">
</g>
<g id="Layer_5" class="st0">
</g>
<g id="Layer_6" class="st0">
</g>
<g id="Layer_7" class="st0">
</g>
<g id="Layer_8" class="st0">
</g>
<g id="Layer_9" class="st0">
</g>
<g id="Layer_20" class="st0">
</g>
<g id="Layer_21" class="st0">
</g>
<g id="Layer_22" class="st0">
</g>
<g id="Layer_28" class="st0">
</g>
<g id="Layer_10" class="st0">
</g>
<g id="Layer_11" class="st0">
</g>
<g id="Layer_12" class="st0">
</g>
<g id="Layer_13" class="st0">
</g>
<g id="Layer_14" class="st0">
</g>
<g id="Layer_15" class="st0">
</g>
<g id="Layer_16" class="st0">
</g>
<g id="Layer_17" class="st0">
</g>
<g id="Layer_18" class="st0">
</g>
<g id="Layer_19" class="st0">
</g>
<g id="Layer_23" class="st0">
</g>
<g id="Layer_24" class="st0">
</g>
<g id="Layer_25" class="st0">
</g>
<g id="Layer_26" class="st0">
</g>
<g id="Layer_27" class="st0">
</g>
<g id="Layer_29" class="st0">
</g>
<g id="Layer_31">
	<g>
		<g>
			<g>
				<path d="M87.85,127.82c-1.38,0-2.76,0.53-3.82,1.58c-2.11,2.11-2.11,5.53,0,7.64l25.85,25.18v39.57c0,2.98,2.42,5.4,5.4,5.4
					c2.98,0,5.4-2.42,5.4-5.4v-41.8c0-1.43-0.57-2.81-1.58-3.82L91.67,129.4C90.61,128.35,89.23,127.82,87.85,127.82z"/>
			</g>
			<g>
				<path class="st20" d="M106.5,170.08c-0.02,0.26-0.02,0.48-0.01,0.66C106.5,170.52,106.5,170.3,106.5,170.08z"/>
			</g>
			<g>
				<path d="M93.85,141.3c-0.31,8.15,16.28,20.11,11.91,33.64c-4.36,13.53-19.39,28.29-46.85,13.9
					c-27.46-14.39-41.69-52.15-29.55-96.71c12.13-44.56,50.17-57.04,66.32-45c16.15,12.03,22.99,24.77,16.66,40.17
					c-6.33,15.41-15.37,17.7-16.15,19.89c-0.78,2.19,4.06,8.89,2.39,18.87C96.92,136.04,94.03,136.76,93.85,141.3z"/>
			</g>
		</g>
		<g>
			<path d="M162.15,127.82c1.38,0,2.76,0.53,3.82,1.58c2.11,2.11,2.11,5.53,0,7.64l-25.85,25.18v39.57c0,2.98-2.42,5.4-5.4,5.4
				c-2.98,0-5.4-2.42-5.4-5.4v-41.8c0-1.43,0.57-2.81,1.58-3.82l27.44-26.77C159.39,128.35,160.77,127.82,162.15,127.82z"/>
			<path d="M156.15,141.3c0.31,8.15-16.28,20.11-11.91,33.64c4.36,13.53,19.39,28.29,46.85,13.9
				c27.46-14.39,41.69-52.15,29.55-96.71c-12.13-44.56-50.17-57.04-66.32-45c-16.15,12.03-22.99,24.77-16.66,40.17
				c6.33,15.41,15.37,17.7,16.15,19.89c0.78,2.19-4.06,8.89-2.39,18.87C153.08,136.04,155.97,136.76,156.15,141.3z"/>
			<g>
				<path class="st20" d="M143.5,170.08c0.02,0.26,0.02,0.48,0.01,0.66C143.5,170.52,143.5,170.3,143.5,170.08z"/>
			</g>
			<path class="st4" d="M182.18,178.15c0-3.08-4.99-5.58-11.15-5.58c-6.16,0-11.15,2.5-11.15,5.58c0,3.08,4.99,7.07,11.15,7.07
				C177.19,185.22,182.18,181.23,182.18,178.15z"/>
			<path class="st4" d="M163.68,171.21c0.59-1.81-1.03-3.95-3.61-4.79c-2.58-0.83-5.14-0.04-5.73,1.77
				c-0.59,1.81,0.74,4.83,3.32,5.67C160.24,174.68,163.09,173.02,163.68,171.21z"/>
			<path class="st4" d="M187.46,141.01c0.59-1.81-2.53-4.44-6.95-5.87c-4.43-1.43-8.49-1.13-9.08,0.68
				c-0.59,1.81,2.24,5.32,6.67,6.75C182.53,144,186.88,142.82,187.46,141.01z"/>
			<path class="st4" d="M167.02,96.07c0.59-1.81-2.53-4.44-6.95-5.87c-4.43-1.43-8.49-1.13-9.08,0.68
				c-0.59,1.81,2.24,5.32,6.67,6.75C162.09,99.06,166.43,97.88,167.02,96.07z"/>
			<path class="st4" d="M180.05,131.94c0.42-1.3-1.82-3.19-4.99-4.22c-3.18-1.03-6.1-0.81-6.52,0.49c-0.42,1.3,1.61,3.82,4.79,4.85
				C176.51,134.09,179.63,133.24,180.05,131.94z"/>
			<path class="st4" d="M155.5,86.49c0.42-1.3-1.29-3.02-3.82-3.84c-2.53-0.82-4.92-0.43-5.34,0.87c-0.42,1.3,1.08,3.65,3.62,4.47
				S155.08,87.79,155.5,86.49z"/>
			<path class="st4" d="M197.39,137.96c0.42-1.3-1.82-3.19-4.99-4.22c-3.18-1.03-6.1-0.81-6.52,0.49c-0.42,1.3,1.61,3.82,4.79,4.85
				C193.85,140.11,196.97,139.26,197.39,137.96z"/>
			<path class="st4" d="M187.75,130.33c0.34-1.06-0.96-2.43-2.91-3.07s-3.81-0.28-4.15,0.78c-0.34,1.06,0.79,2.95,2.74,3.58
				C185.38,132.26,187.4,131.4,187.75,130.33z"/>
			<path class="st4" d="M169.91,134.93c0.61-0.94-0.29-2.6-2.01-3.72c-1.72-1.12-3.6-1.26-4.21-0.33c-0.61,0.94,0,3.05,1.71,4.17
				C167.12,136.18,169.3,135.87,169.91,134.93z"/>
			<path class="st4" d="M163.87,87.53c0.34-1.06-0.96-2.43-2.91-3.07c-1.95-0.63-3.81-0.28-4.15,0.78
				c-0.34,1.06,0.79,2.95,2.74,3.58C161.5,89.46,163.53,88.59,163.87,87.53z"/>
			<path class="st4" d="M152.43,79.17c0.34-1.06-0.96-2.43-2.91-3.07c-1.95-0.63-3.81-0.28-4.15,0.78
				c-0.34,1.06,0.79,2.95,2.74,3.58C150.06,81.09,152.08,80.23,152.43,79.17z"/>
			<path class="st4" d="M188.75,177.07c-0.16-0.95-1.22-0.62-2.58-0.39c-1.36,0.23-2.51,0.28-2.34,1.24c0.16,0.95,1.48,2,2.84,1.77
				C188.03,179.45,188.92,178.03,188.75,177.07z"/>
			
				<ellipse transform="matrix(0.1441 -0.9896 0.9896 0.1441 59.1818 303.6837)" class="st4" cx="205.15" cy="117.63" rx="7.46" ry="8.36"/>
			<circle class="st4" cx="186.17" cy="75.79" r="7.96"/>
			
				<ellipse transform="matrix(0.4194 -0.9078 0.9078 0.4194 -49.149 251.3311)" class="st4" cx="171.92" cy="164.09" rx="6.88" ry="8.36"/>
			
				<ellipse transform="matrix(0.9732 -0.2298 0.2298 0.9732 -20.7191 47.6178)" class="st4" cx="194.13" cy="112.78" rx="3.28" ry="3.28"/>
			
				<ellipse transform="matrix(0.9871 -0.1602 0.1602 0.9871 -10.5006 33.1694)" class="st4" cx="200.49" cy="81.72" rx="3.7" ry="3.7"/>
		</g>
	</g>
</g>
<g id="Layer_30">
</g>
</svg>
