<?xml version="1.0" encoding="utf-8"?>
<!-- Generator: Adobe Illustrator 26.5.0, SVG Export Plug-In . SVG Version: 6.00 Build 0)  -->
<svg version="1.1" xmlns="http://www.w3.org/2000/svg" xmlns:xlink="http://www.w3.org/1999/xlink" x="0px" y="0px"
	 viewBox="0 0 250 250" style="enable-background:new 0 0 250 250;" xml:space="preserve">
<style type="text/css">
	.st0{display:none;}
	.st1{display:inline;fill:none;stroke:#231F20;stroke-width:0.25;stroke-miterlimit:10;}
	.st2{display:inline;}
	.st3{fill:#66BE6F;}
	.st4{fill:#FFFFFF;}
	.st5{fill:#EC1C24;}
	.st6{opacity:0.16;}
	.st7{opacity:0.2;fill:#6D6E70;}
	.st8{opacity:0.3;fill:#757779;}
	.st9{display:inline;fill:#66BE6F;}
	.st10{display:inline;fill:#68BE6F;}
	.st11{display:inline;fill:#EC1C24;}
	.st12{fill:#67BE6F;}
	.st13{fill:none;}
	.st14{fill:#68BE6F;}
	.st15{fill-rule:evenodd;clip-rule:evenodd;fill:#68BE6F;}
	.st16{fill-rule:evenodd;clip-rule:evenodd;fill:#EC1C24;}
	.st17{display:inline;fill-rule:evenodd;clip-rule:evenodd;fill:#68BE6F;}
	.st18{fill:#68BF6F;}
	.st19{fill:#FB2E32;}
	.st20{fill:#6B1515;}
	.st21{fill:none;stroke:#FB2E32;stroke-width:4.4231;stroke-linecap:round;stroke-miterlimit:10;}
	.st22{fill:none;stroke:#FFFFFF;stroke-miterlimit:10;}
	.st23{fill:none;stroke:#68BF6F;stroke-width:4;stroke-miterlimit:10;}
	.st24{fill:none;stroke:#FCFCFC;stroke-width:4;stroke-miterlimit:10;}
	.st25{fill:none;stroke:#000000;stroke-width:4.4231;stroke-linecap:round;stroke-miterlimit:10;}
	.st26{fill:#232323;stroke:#FFFFFF;stroke-width:3.9328;stroke-linecap:round;stroke-linejoin:round;stroke-miterlimit:10;}
	.st27{fill:none;stroke:#FFFFFF;stroke-width:4;stroke-miterlimit:10;}
	.st28{fill:none;stroke:#000000;stroke-width:4;stroke-linecap:round;stroke-miterlimit:10;}
	.st29{fill:none;stroke:#FFFFFF;stroke-width:3.9328;stroke-linecap:round;stroke-linejoin:round;stroke-miterlimit:10;}
	.st30{fill:none;stroke:#000000;stroke-miterlimit:10;}
	.st31{fill:none;stroke:#FFFFFF;stroke-width:4;stroke-linecap:round;stroke-miterlimit:10;}
</style>
<g id="BG" class="st0">
	<rect x="25" y="25" class="st1" width="200" height="200"/>
</g>
<g id="Layer_1" class="st0">
</g>
<g id="Layer_2" class="st0">
</g>
<g id="Layer_4" class="st0">
</g>
<g id="Layer_5" class="st0">
</g>
<g id="Layer_6" class="st0">
</g>
<g id="Layer_7" class="st0">
</g>
<g id="Layer_8" class="st0">
</g>
<g id="Layer_9" class="st0">
</g>
<g id="Layer_20" class="st0">
</g>
<g id="Layer_21" class="st0">
</g>
<g id="Layer_22" class="st0">
</g>
<g id="Layer_28" class="st0">
</g>
<g id="Layer_10" class="st0">
</g>
<g id="Layer_11" class="st0">
</g>
<g id="Layer_12" class="st0">
</g>
<g id="Layer_13" class="st0">
</g>
<g id="Layer_14" class="st0">
</g>
<g id="Layer_15" class="st0">
</g>
<g id="Layer_16" class="st0">
</g>
<g id="Layer_17" class="st0">
</g>
<g id="Layer_18" class="st0">
</g>
<g id="Layer_19" class="st0">
</g>
<g id="Layer_23" class="st0">
</g>
<g id="Layer_24" class="st0">
</g>
<g id="Layer_25" class="st0">
</g>
<g id="Layer_26" class="st0">
</g>
<g id="Layer_27" class="st0">
</g>
<g id="Layer_29" class="st0">
</g>
<g id="Layer_31">
	<g>
		<g>
			<path d="M182.95,44.78h20.48c1.75,0,3.18,1.42,3.18,3.18v6.36h-26.83v-6.36C179.77,46.2,181.19,44.78,182.95,44.78z"/>
			<path d="M171.65,133.05V59.79c0-3.02,2.45-5.47,5.47-5.47h32.13c3.02,0,5.47,2.45,5.47,5.47v73.26v18.36
				c0,13.65-11.07,24.71-24.71,24.71h-18.36H150.2c-3.85,0-6.97-3.12-6.97-6.97v-29.13c0-3.85,3.12-6.97,6.97-6.97H171.65z"/>
			<line class="st26" x1="171.65" y1="63.73" x2="206.07" y2="63.73"/>
			<path class="st27" d="M167.53,133.05h2.64c6.45,0,12.61,2.7,16.97,7.46l15.04,16.37"/>
		</g>
		
			<rect x="130.52" y="146.99" transform="matrix(-1 -1.224647e-16 1.224647e-16 -1 273.7462 310.9347)" width="12.71" height="16.95"/>
		<g>
			<line class="st28" x1="115.48" y1="147.12" x2="101.39" y2="146.16"/>
			<path d="M100.12,167.91c1.67,6.61-2.34,13.34-8.95,15.02c-1.37,0.35-2.74,0.45-4.06,0.34c-2.5,3.3-6.09,5.8-10.4,6.9
				c-10.11,2.57-20.37-3.54-22.92-13.66c-0.56-2.23-0.7-4.46-0.47-6.62c-7.51,3.86-16.78,1.14-20.95-6.28
				c-4.28-7.6-1.58-17.24,6.02-21.54c2.04-1.15,4.23-1.8,6.43-1.99c0.99-4.13,3.62-7.86,7.61-10.11c4.88-2.76,10.59-2.64,15.19-0.19
				c0.33-0.22,0.67-0.44,1.02-0.64c7.6-4.29,17.23-1.61,21.5,5.99c0.91,1.62,1.5,3.33,1.8,5.06c4.17-1.93,11.17,0.68,13.01,6.57"/>
			<line class="st28" x1="96.72" y1="177.13" x2="120.19" y2="165.8"/>
			<path class="st29" d="M91.92,140.03c-0.31-1.68-0.89-3.33-1.77-4.9c-4.28-7.6-13.9-10.28-21.5-5.99
				c-3.92,2.22-6.54,5.86-7.56,9.9"/>
			<path class="st29" d="M68.7,143.71c-2.36-4.19-7.67-5.67-11.86-3.3c-4.19,2.37-5.68,7.69-3.32,11.88"/>
			<line class="st28" x1="117.97" y1="157" x2="105.31" y2="158.98"/>
		</g>
		<circle cx="95.12" cy="156.12" r="13.64"/>
	</g>
</g>
<g id="Layer_30">
</g>
</svg>
