<?xml version="1.0" encoding="utf-8"?>
<!-- Generator: Adobe Illustrator 26.5.0, SVG Export Plug-In . SVG Version: 6.00 Build 0)  -->
<svg version="1.1" xmlns="http://www.w3.org/2000/svg" xmlns:xlink="http://www.w3.org/1999/xlink" x="0px" y="0px"
	 viewBox="0 0 250 250" style="enable-background:new 0 0 250 250;" xml:space="preserve">
<style type="text/css">
	.st0{display:none;}
	.st1{display:inline;fill:none;stroke:#231F20;stroke-width:0.25;stroke-miterlimit:10;}
	.st2{display:inline;}
	.st3{fill:#66BE6F;}
	.st4{fill:#FFFFFF;}
	.st5{fill:#EC1C24;}
	.st6{opacity:0.16;}
	.st7{opacity:0.2;fill:#6D6E70;}
	.st8{opacity:0.3;fill:#757779;}
	.st9{display:inline;fill:#66BE6F;}
	.st10{display:inline;fill:#68BE6F;}
	.st11{display:inline;fill:#EC1C24;}
	.st12{fill:#67BE6F;}
	.st13{fill:none;}
	.st14{fill:#68BE6F;}
	.st15{fill-rule:evenodd;clip-rule:evenodd;fill:#68BE6F;}
	.st16{fill-rule:evenodd;clip-rule:evenodd;fill:#EC1C24;}
	.st17{display:inline;fill-rule:evenodd;clip-rule:evenodd;fill:#68BE6F;}
	.st18{fill:#68BF6F;}
	.st19{fill:#FB2E32;}
	.st20{fill:#6B1515;}
	.st21{fill:none;stroke:#FB2E32;stroke-width:4.4231;stroke-linecap:round;stroke-miterlimit:10;}
	.st22{fill:none;stroke:#FFFFFF;stroke-miterlimit:10;}
	.st23{fill:none;stroke:#68BF6F;stroke-width:4;stroke-miterlimit:10;}
	.st24{fill:none;stroke:#FCFCFC;stroke-width:4;stroke-miterlimit:10;}
	.st25{fill:none;stroke:#000000;stroke-width:4.4231;stroke-linecap:round;stroke-miterlimit:10;}
	.st26{fill:#232323;stroke:#FFFFFF;stroke-width:3.9328;stroke-linecap:round;stroke-linejoin:round;stroke-miterlimit:10;}
	.st27{fill:none;stroke:#FFFFFF;stroke-width:4;stroke-miterlimit:10;}
	.st28{fill:none;stroke:#000000;stroke-width:4;stroke-linecap:round;stroke-miterlimit:10;}
	.st29{fill:none;stroke:#FFFFFF;stroke-width:3.9328;stroke-linecap:round;stroke-linejoin:round;stroke-miterlimit:10;}
	.st30{fill:none;stroke:#000000;stroke-miterlimit:10;}
	.st31{fill:none;stroke:#FFFFFF;stroke-width:4;stroke-linecap:round;stroke-miterlimit:10;}
</style>
<g id="BG" class="st0">
	<rect x="25" y="25" class="st1" width="200" height="200"/>
</g>
<g id="Layer_1" class="st0">
</g>
<g id="Layer_2" class="st0">
</g>
<g id="Layer_4" class="st0">
</g>
<g id="Layer_5" class="st0">
</g>
<g id="Layer_6" class="st0">
</g>
<g id="Layer_7" class="st0">
</g>
<g id="Layer_8" class="st0">
</g>
<g id="Layer_9" class="st0">
</g>
<g id="Layer_20" class="st0">
</g>
<g id="Layer_21" class="st0">
</g>
<g id="Layer_22" class="st0">
</g>
<g id="Layer_28" class="st0">
</g>
<g id="Layer_10" class="st0">
</g>
<g id="Layer_11" class="st0">
</g>
<g id="Layer_12" class="st0">
</g>
<g id="Layer_13" class="st0">
</g>
<g id="Layer_14" class="st0">
</g>
<g id="Layer_15" class="st0">
</g>
<g id="Layer_16" class="st0">
</g>
<g id="Layer_17" class="st0">
</g>
<g id="Layer_18" class="st0">
</g>
<g id="Layer_19" class="st0">
</g>
<g id="Layer_23" class="st0">
</g>
<g id="Layer_24" class="st0">
</g>
<g id="Layer_25" class="st0">
</g>
<g id="Layer_26" class="st0">
</g>
<g id="Layer_27" class="st0">
</g>
<g id="Layer_29" class="st0">
</g>
<g id="Layer_31">
	<g>
		<path d="M98.21,199.39c-1.56-5.19-9-23.48-9-23.48c-11.71-27.23,5.47-34.62,5.47-34.62c0-7.44,6.01-13.46,13.46-13.46
			c3.4,0,6.49,1.3,8.84,3.4c2.45-3.4,6.39-5.63,10.91-5.63c3.25,0,6.17,1.21,8.49,3.12c2.42-3.66,6.52-6.08,11.23-6.08
			c3.18,0,6.04,1.15,8.34,2.96c2.48-2.93,6.11-4.8,10.21-4.8c2.45,0,4.74,0.7,6.71,1.88c1.97-1.15,4.26-1.88,6.71-1.88
			c1.27,0,2.45,0.22,3.6,0.54c0.51-1.53,1.27-2.9,2.23-4.14c-2.67-2.45-4.39-5.95-4.39-9.89c0-4.17,1.91-7.83,4.87-10.28
			c-2.96-2.48-4.87-6.14-4.87-10.28c0-2.45,0.7-4.74,1.88-6.71c-1.15-1.97-1.88-4.26-1.88-6.71c0-3.44,1.34-6.55,3.47-8.91
			c-2.13-2.39-3.47-5.47-3.47-8.91c0-0.06,0-0.1,0-0.16c-0.48,0.06-0.95,0.16-1.46,0.16c-1.4,0-2.74-0.29-4.01-0.67
			c-1.43,5.92-6.71,10.31-13.04,10.31c-3.28,0-6.2-1.21-8.56-3.15c-1.81,5.31-6.78,9.13-12.69,9.13c-4.3,0-8.08-2.04-10.53-5.19
			c-2.23,4.36-6.71,7.41-11.96,7.41c-4.17,0-7.86-1.94-10.31-4.9c-2.48,2.99-6.14,4.9-10.31,4.9c-4.93,0-9.19-2.67-11.55-6.65
			c-2.35,3.98-6.62,6.65-11.55,6.65c-4.23,0-7.99-2-10.47-5.09c-2.48,3.09-6.2,5.09-10.47,5.09c-8.46,0-15.08-7.79-13.11-16.61
			c1.11-4.87,5.06-8.81,9.93-9.93c5.54-1.27,10.56,0.89,13.65,4.71c2.48-3.09,6.2-5.09,10.47-5.09c4.93,0,9.19,2.67,11.55,6.65
			c2.35-3.98,6.62-6.65,11.55-6.65c4.17,0,7.86,1.94,10.31,4.9c2.48-2.99,6.14-4.9,10.31-4.9c4.3,0,8.08,2.04,10.53,5.19
			c2.23-4.39,6.71-7.41,11.96-7.41c3.28,0,6.24,1.21,8.56,3.15c1.81-5.31,6.78-9.13,12.69-9.13c1.4,0,2.74,0.29,4.01,0.67
			c1.43-5.92,6.71-10.31,13.04-10.31c7.44,0,13.46,6.01,13.46,13.46c0,0.06,0,0.1,0,0.16c0.48-0.06,0.95-0.16,1.46-0.16
			c7.44,0,13.46,6.01,13.46,13.46c0,3.44-1.34,6.55-3.47,8.91c2.13,2.39,3.47,5.47,3.47,8.91c0,2.45-0.7,4.74-1.88,6.71
			c1.15,1.97,1.88,4.26,1.88,6.71c0,4.17-1.91,7.83-4.87,10.28c2.96,2.48,4.87,6.14,4.87,10.28c0,3.18-1.15,6.04-2.99,8.34
			c2.67,2.45,4.39,5.95,4.39,9.89c0,3.31-1.59,6.36-3.91,8.69c-5.35,5.35-9.45,5.25-13.14,4.23c-1.78,5.35-6.78,9.23-12.73,9.23
			c-2.45,0-4.74-0.7-6.71-1.88c-1.97,1.15-4.26,1.88-6.71,1.88c-3.18,0-6.04-1.15-8.34-2.96c-2.48,2.93-6.11,4.8-10.21,4.8
			c-3.25,0-6.17-1.21-8.49-3.12c-2.42,3.66-6.52,6.08-11.23,6.08c-1.27,0-2.48-0.22-3.63-0.57l0.48,0.16c0,0,3.37,5.76-6.71,25.71
			c0,0-8.75,18.58-8.75,20.08"/>
		<g>
			<path class="st25" d="M92.45,202.57l-11.68-5.5c-0.16-0.06-0.35,0.06-0.29,0.25l1.46,6.24c0.06,0.32-0.25,0.57-0.54,0.45
				l-15.08-7.13"/>
			<path class="st25" d="M93.6,211.48l-12.76,1.97c-0.19,0.03-0.25,0.25-0.13,0.38l4.71,4.36c0.25,0.22,0.13,0.64-0.22,0.67
				l-16.48,2.55"/>
		</g>
		<g>
			<path class="st25" d="M116.76,202.57l11.68-5.5c0.16-0.06,0.35,0.06,0.29,0.25l-1.46,6.24c-0.06,0.32,0.25,0.57,0.54,0.45
				l15.08-7.13"/>
			<path class="st25" d="M115.61,211.48l12.76,1.97c0.19,0.03,0.25,0.25,0.13,0.38l-4.71,4.36c-0.25,0.22-0.13,0.64,0.22,0.67
				l16.48,2.55"/>
		</g>
		
			<ellipse transform="matrix(0.9298 -0.368 0.368 0.9298 -62.2394 49.4471)" class="st4" cx="98.53" cy="187.91" rx="3.09" ry="6.01"/>
		
			<ellipse transform="matrix(0.3896 -0.921 0.921 0.3896 -88.7644 212.0987)" class="st4" cx="115.63" cy="173.01" rx="6.01" ry="3.09"/>
	</g>
</g>
<g id="Layer_30">
</g>
</svg>
